<?xml version="1.0" encoding="UTF-8"?>
<svg width="88px" height="29px" viewBox="0 0 88 29" version="1.1" xmlns="http://www.w3.org/2000/svg" xmlns:xlink="http://www.w3.org/1999/xlink">
    <title>Group 15</title>
    <g id="nueva-version" stroke="none" stroke-width="1" fill="none" fill-rule="evenodd">
        <g id="alianzas_beneficios_desktop" transform="translate(-25.000000, -20.000000)">
            <g id="Group-15" transform="translate(25.000000, 20.000000)">
                <path d="M45.0731707,7.72396706 L45.0731707,28.0483907 L39.0892168,28.0483907 L39.0892168,26.1384972 C37.7730816,27.6828276 35.8174682,28.6178862 33.1449205,28.6178862 C27.9181781,28.6178862 23.6097561,23.9432246 23.6097561,17.8864945 C23.6097561,11.8291332 27.9181781,7.15447154 33.1449205,7.15447154 C35.8174682,7.15447154 37.7730816,8.08953014 39.0892168,9.63386055 L39.0892168,7.72396706 L45.0731707,7.72396706 Z M39.0892168,17.8864945 C39.0892168,14.83761 37.0945655,12.9270852 34.3420831,12.9270852 C31.5883613,12.9270852 29.5949493,14.83761 29.5949493,17.8864945 C29.5949493,20.9347477 31.5883613,22.8452726 34.3420831,22.8452726 C37.0945655,22.8452726 39.0892168,20.9347477 39.0892168,17.8864945 L39.0892168,17.8864945 Z" id="Fill-2" fill="#01003A"></path>
                <path d="M18.2435981,20.7479675 C20.4191019,20.7479675 22.1788618,22.5066459 22.1788618,24.6829268 C22.1788618,26.8592077 20.4191019,28.6178862 18.2435981,28.6178862 C16.0680942,28.6178862 14.3089431,26.8592077 14.3089431,24.6829268 C14.3089431,22.5066459 16.0680942,20.7479675 18.2435981,20.7479675 Z" id="Fill-3" fill="#FF003F"></path>
                <path d="M84.0650407,20.7479675 C86.240104,20.7479675 88,22.5066459 88,24.6829268 C88,26.8592077 86.240104,28.6178862 84.0650407,28.6178862 C81.8893685,28.6178862 80.1300813,26.8592077 80.1300813,24.6829268 C80.1300813,22.5066459 81.8893685,20.7479675 84.0650407,20.7479675 Z" id="Fill-4" fill="#FFC700"></path>
                <polygon id="Fill-5" fill="#01003A" points="48.6504065 27.902439 54.3739837 27.902439 54.3739837 0 48.6504065 0"></polygon>
                <polygon id="Fill-6" fill="#00CED2" points="80.8455285 18.601626 86.5691057 18.601626 86.5691057 0 80.8455285 0"></polygon>
                <path d="M68.3676642,23.1708991 C70.003085,23.1708991 71.3999165,22.5205691 72.1974862,21.6258919 L76.9853833,24.4311502 C75.0308108,27.1953683 72.0778817,28.6178862 68.2871016,28.6178862 C61.464689,28.6178862 57.2357724,23.9437184 57.2357724,17.8861789 C57.2357724,11.8299021 61.5446319,7.15447154 67.8483453,7.15447154 C73.6742606,7.15447154 77.9837398,11.748453 77.9837398,17.8861789 C77.9837398,18.7398159 77.9031772,19.553044 77.7439112,20.325232 L63.5791474,20.325232 C64.3370555,22.4391201 66.1726433,23.1708991 68.3676642,23.1708991 L68.3676642,23.1708991 Z M72.0382201,15.7729221 C71.3999165,13.4146868 69.6039902,12.5610498 67.8086837,12.5610498 C65.5349593,12.5610498 64.0179037,13.6994429 63.4595429,15.7729221 L72.0382201,15.7729221 Z" id="Fill-7" fill="#01003A"></path>
                <path d="M12.371037,24.5842162 C12.371037,23.8597918 12.4974492,23.1659681 12.7298244,22.5233537 C12.1312258,22.7737797 11.4588868,22.909297 10.7313975,22.909297 C7.97883555,22.909297 5.98350699,21.0189241 5.98350699,18.0038198 C5.98350699,14.988091 7.97883555,13.0983425 10.7313975,13.0983425 C13.4845791,13.0983425 15.479288,14.988091 15.479288,18.0038198 C15.479288,18.5046718 15.4191803,18.9705516 15.3150762,19.4058308 C16.198102,18.8843701 17.2255103,18.5846083 18.3235607,18.5846083 C19.4773811,18.5846083 20.5525038,18.9143463 21.4634146,19.4851428 L21.4634146,0 L15.479288,0 L15.479288,9.84155523 C14.1631147,8.31339445 12.2074449,7.38912884 9.53543969,7.38912884 C4.30854641,7.38912884 0,12.0129549 0,18.0038198 C0,23.9946846 4.30854641,28.6178862 9.53543969,28.6178862 C11.0090084,28.6178862 12.2638346,28.3356105 13.3141706,27.8272644 C12.7186704,26.8923822 12.371037,25.780141 12.371037,24.5842162" id="Fill-8" fill="#01003A"></path>
            </g>
        </g>
    </g>
</svg>