<svg xmlns="http://www.w3.org/2000/svg" xmlns:xlink="http://www.w3.org/1999/xlink" width="221" height="66" viewBox="0 0 221 66">
    <defs>
        <path id="a" d="M0 .165h220.79V65.1H0z"/>
        <path id="c" d="M0 65.635h220.79V.7H0z"/>
    </defs>
    <g fill="none" fill-rule="evenodd">
        <g transform="translate(0 .535)">
            <mask id="b" fill="#fff">
                <use xlink:href="#a"/>
            </mask>
            <path fill="#FEFEFE" d="M220.79 56.917a8.183 8.183 0 0 1-8.18 8.183H8.18A8.18 8.18 0 0 1 0 56.917V8.347A8.178 8.178 0 0 1 8.18.165h204.43a8.18 8.18 0 0 1 8.18 8.182v48.57z" mask="url(#b)"/>
        </g>
        <path fill="#090E35" d="M111.863 18.978c.08.027.175.027.282.027.89 0 1.293-.633 1.293-1.482 0-.794-.323-1.414-1.145-1.414a1.31 1.31 0 0 0-.43.067v2.802zm-1.765-4.122a9.281 9.281 0 0 1 1.845-.175c1.05 0 1.873.148 2.465.7.539.472.782 1.226.782 1.994 0 .983-.297 1.67-.769 2.182-.565.592-1.481.863-2.208.863h-.35v3.38h-1.765v-8.944zM115.944 19.194c0-.66-.028-1.374-.054-1.98h1.535l.094.956h.04c.296-.7.822-1.064 1.307-1.064.175 0 .27 0 .377.027v1.75c-.107-.026-.229-.026-.377-.026-.377 0-.875.255-1.077.942-.04.149-.068.377-.068.66v3.34h-1.777v-4.605zM121.25 20.486c0 1.131.175 2.074.807 2.074.567 0 .714-1.104.714-2.074 0-.902-.147-2.047-.74-2.047-.647 0-.781 1.145-.781 2.047m3.285 0c0 2.748-1.52 3.422-2.518 3.422-1.575 0-2.519-1.24-2.519-3.381 0-2.371 1.24-3.421 2.546-3.421 1.55 0 2.491 1.306 2.491 3.38M128.415 19.745c0-.12 0-.255-.014-.39-.066-.404-.283-.768-.633-.768-.62 0-.848.903-.848 1.967 0 1.252.337 1.912.835 1.912.216 0 .471-.121.606-.579a1.14 1.14 0 0 0 .054-.404v-1.738zm1.765-5.266v7.368c0 .632.026 1.346.054 1.953h-1.523l-.094-.742h-.027c-.243.459-.768.85-1.374.85-1.4 0-2.048-1.55-2.048-3.395 0-2.29.997-3.407 2.116-3.407.579 0 .942.282 1.104.66h.027v-3.287h1.765zM136.105 21.793c0 .7.027 1.387.054 2.007h-1.522l-.093-.701h-.028c-.31.445-.848.808-1.521.808-1.253 0-1.765-.93-1.765-2.707v-3.987h1.777v3.798c0 .862.163 1.414.661 1.414.295 0 .484-.228.565-.443.068-.135.108-.337.108-.566v-4.203h1.764v4.58zM140.887 23.692c-.175.08-.62.189-1.118.189-1.67 0-2.761-1.159-2.761-3.314 0-2.034 1.199-3.448 3.018-3.448.417 0 .793.094.969.175l-.229 1.388a1.851 1.851 0 0 0-.66-.122c-.848 0-1.347.808-1.347 1.953 0 1.199.499 1.926 1.32 1.926.256 0 .472-.04.66-.134l.148 1.387zM143.784 15.49v1.723h1.293v1.253h-1.293v3.003c0 .768.323.957.673.957.175 0 .31-.013.458-.04l.013 1.373a4.158 4.158 0 0 1-1.077.121c-.513 0-.957-.121-1.266-.417-.364-.35-.566-.848-.566-1.886v-3.11h-.781v-1.254h.78v-1.171l1.766-.553zM147.204 20.486c0 1.131.175 2.074.807 2.074.567 0 .714-1.104.714-2.074 0-.902-.147-2.047-.74-2.047-.647 0-.781 1.145-.781 2.047m3.285 0c0 2.748-1.52 3.422-2.517 3.422-1.576 0-2.52-1.24-2.52-3.381 0-2.371 1.24-3.421 2.546-3.421 1.55 0 2.491 1.306 2.491 3.38M155.11 21.389c0 .229.027.43.095.566.134.404.363.51.564.51.62 0 .836-.915.836-1.952 0-1.252-.297-1.926-.822-1.926-.269 0-.525.256-.592.566-.068.134-.08.31-.08.47v1.766zm-1.765-2.088c0-.794-.027-1.468-.054-2.088h1.536l.094.755h.027c.27-.54.768-.862 1.374-.862 1.455 0 2.047 1.576 2.047 3.394 0 2.343-1.036 3.408-2.141 3.408-.539 0-.902-.337-1.091-.647h-.027v3.125h-1.765V19.3zM159.231 19.194c0-.66-.027-1.374-.053-1.98h1.535l.094.956h.04c.296-.7.822-1.064 1.307-1.064.175 0 .27 0 .377.027v1.75c-.108-.026-.229-.026-.377-.026-.377 0-.875.255-1.077.942-.041.149-.068.377-.068.66v3.34h-1.778v-4.605zM164.538 20.486c0 1.131.175 2.074.808 2.074.566 0 .714-1.104.714-2.074 0-.902-.148-2.047-.74-2.047-.647 0-.782 1.145-.782 2.047m3.286 0c0 2.748-1.521 3.422-2.518 3.422-1.576 0-2.52-1.24-2.52-3.381 0-2.371 1.24-3.421 2.547-3.421 1.549 0 2.491 1.306 2.491 3.38M170.76 15.49v1.723h1.294v1.253h-1.293v3.003c0 .768.323.957.673.957.175 0 .31-.013.458-.04l.013 1.373a4.158 4.158 0 0 1-1.077.121c-.512 0-.957-.121-1.266-.417-.363-.35-.566-.848-.566-1.886v-3.11h-.781v-1.254h.781v-1.171l1.765-.553zM175.703 19.894c0-.849-.216-1.509-.74-1.509-.58 0-.81.85-.822 1.509h1.562zm-1.576 1.24c.027 1.022.62 1.4 1.4 1.4a3.9 3.9 0 0 0 1.253-.216l.243 1.266c-.459.175-1.145.296-1.819.296-1.791 0-2.775-1.185-2.775-3.245 0-2.21 1.146-3.529 2.64-3.529 1.415 0 2.237 1.117 2.237 3.111 0 .472-.014.727-.054.916h-3.125zM181.211 19.61c0-.174-.027-.35-.067-.484-.08-.283-.269-.539-.566-.539-.633 0-.889.863-.889 1.94 0 1.226.35 1.844.849 1.844.229 0 .457-.12.593-.47.053-.148.08-.35.08-.526v-1.764zm1.751 3.449c0 1.414-.256 2.196-.795 2.707-.484.458-1.172.728-2.141.728-.606 0-1.172-.108-1.643-.31l.323-1.361c.336.148.754.283 1.266.283.889 0 1.239-.593 1.239-1.602v-.405h-.027c-.228.418-.687.66-1.185.66-1.482 0-2.061-1.616-2.061-3.192 0-2.195.997-3.461 2.222-3.461.526 0 .957.27 1.213.768h.027l.094-.66h1.536c-.027.592-.068 1.293-.068 2.087v3.758z"/>
        <mask id="d" fill="#fff">
            <use xlink:href="#c"/>
        </mask>
        <path fill="#090E35" d="M184.052 23.8h1.765v-6.587h-1.765V23.8zm1.765-8.337c.014.565-.39.956-.929.956-.485 0-.889-.391-.876-.956-.013-.593.418-.957.903-.957.512 0 .902.364.902.957zM189.94 19.745c0-.12 0-.255-.015-.39-.066-.404-.283-.768-.633-.768-.62 0-.848.903-.848 1.967 0 1.252.337 1.912.835 1.912.216 0 .471-.121.606-.579a1.14 1.14 0 0 0 .054-.404v-1.738zm1.764-5.266v7.368c0 .632.026 1.346.054 1.953h-1.523l-.094-.742h-.027c-.243.459-.768.85-1.374.85-1.4 0-2.047-1.55-2.047-3.395 0-2.29.996-3.407 2.115-3.407.579 0 .942.282 1.104.66h.027v-3.287h1.765zM194.33 20.486c0 1.131.175 2.074.808 2.074.566 0 .714-1.104.714-2.074 0-.902-.148-2.047-.74-2.047-.648 0-.782 1.145-.782 2.047m3.286 0c0 2.748-1.521 3.422-2.518 3.422-1.576 0-2.52-1.24-2.52-3.381 0-2.371 1.24-3.421 2.546-3.421 1.55 0 2.492 1.306 2.492 3.38M202.236 21.389c0 .229.026.43.094.566.135.404.363.51.565.51.62 0 .836-.915.836-1.952 0-1.252-.297-1.926-.822-1.926-.27 0-.526.256-.593.566-.067.134-.08.31-.08.47v1.766zM200.47 19.3c0-.794-.027-1.468-.054-2.088h1.536l.094.755h.027c.269-.54.767-.862 1.373-.862 1.456 0 2.048 1.576 2.048 3.394 0 2.343-1.037 3.408-2.141 3.408-.54 0-.903-.337-1.092-.647h-.026v3.125h-1.765V19.3zM207.892 20.486c0 1.131.175 2.074.808 2.074.566 0 .714-1.104.714-2.074 0-.902-.148-2.047-.74-2.047-.647 0-.782 1.145-.782 2.047m3.286 0c0 2.748-1.52 3.422-2.518 3.422-1.575 0-2.519-1.24-2.519-3.381 0-2.371 1.24-3.421 2.546-3.421 1.549 0 2.491 1.306 2.491 3.38M212.027 19.194c0-.66-.027-1.374-.053-1.98h1.535l.094.956h.04c.296-.7.822-1.064 1.307-1.064.175 0 .27 0 .377.027v1.75c-.108-.026-.229-.026-.377-.026-.377 0-.875.255-1.077.942-.04.149-.068.377-.068.66v3.34h-1.778v-4.605zM114.738 34.072c0-.848-.216-1.508-.74-1.508-.58 0-.81.849-.822 1.508h1.562zm-1.576 1.24c.027 1.022.62 1.4 1.4 1.4a3.91 3.91 0 0 0 1.254-.215l.242 1.265c-.459.175-1.145.297-1.819.297-1.791 0-2.775-1.186-2.775-3.246 0-2.21 1.146-3.528 2.64-3.528 1.415 0 2.237 1.117 2.237 3.11 0 .472-.014.728-.054.917h-3.125zM117.202 37.978h1.765v-9.32h-1.765zM122.064 36.173c.364.202.984.35 1.496.35.835 0 1.239-.43 1.239-1.023 0-.66-.404-.983-1.172-1.482-1.24-.754-1.71-1.71-1.71-2.532 0-1.454.97-2.667 2.868-2.667.593 0 1.159.162 1.428.324l-.283 1.521a2.16 2.16 0 0 0-1.158-.31c-.755 0-1.118.459-1.118.943 0 .54.269.822 1.253 1.415 1.198.727 1.642 1.643 1.642 2.6 0 1.656-1.225 2.747-3.003 2.747-.727 0-1.44-.189-1.737-.364l.255-1.522zM130.442 34.072c0-.848-.216-1.508-.74-1.508-.58 0-.81.849-.822 1.508h1.562zm-1.576 1.24c.027 1.022.62 1.4 1.4 1.4a3.9 3.9 0 0 0 1.253-.215l.243 1.265c-.458.175-1.145.297-1.818.297-1.792 0-2.775-1.186-2.775-3.246 0-2.21 1.145-3.528 2.64-3.528 1.414 0 2.236 1.117 2.236 3.11 0 .472-.013.728-.054.917h-3.125zM135.95 33.789c0-.175-.026-.35-.067-.484-.08-.284-.269-.54-.566-.54-.633 0-.889.863-.889 1.94 0 1.226.35 1.845.849 1.845.229 0 .458-.121.593-.471.054-.148.08-.35.08-.525v-1.765zm1.752 3.448c0 1.414-.257 2.196-.796 2.708-.484.458-1.171.727-2.14.727-.607 0-1.173-.108-1.644-.31l.323-1.36c.337.148.755.283 1.266.283.89 0 1.24-.593 1.24-1.603v-.405h-.027c-.23.418-.688.66-1.185.66-1.482 0-2.062-1.615-2.062-3.192 0-2.195.997-3.46 2.223-3.46.525 0 .956.269 1.212.767h.027l.094-.66h1.536c-.027.592-.067 1.293-.067 2.088v3.757zM143.614 35.971c0 .7.027 1.387.054 2.007h-1.523l-.093-.7h-.028c-.309.444-.847.808-1.52.808-1.254 0-1.765-.93-1.765-2.708v-3.986h1.777v3.798c0 .862.162 1.414.66 1.414.296 0 .485-.23.566-.444.068-.135.107-.337.107-.566v-4.202h1.765v4.579zM144.732 33.372c0-.66-.027-1.374-.053-1.98h1.535l.094.956h.04c.296-.7.822-1.063 1.307-1.063.175 0 .27 0 .377.026v1.75c-.108-.026-.229-.026-.377-.026-.377 0-.875.256-1.077.943-.041.148-.068.377-.068.66v3.34h-1.778v-4.606zM150.038 34.665c0 1.13.175 2.074.808 2.074.567 0 .714-1.104.714-2.074 0-.903-.147-2.048-.74-2.048-.647 0-.782 1.145-.782 2.048m3.286 0c0 2.747-1.52 3.421-2.518 3.421-1.575 0-2.519-1.24-2.519-3.38 0-2.372 1.24-3.422 2.546-3.422 1.55 0 2.491 1.307 2.491 3.38M159.21 33.924c0-.121 0-.256-.013-.39-.067-.405-.283-.768-.633-.768-.62 0-.848.902-.848 1.966 0 1.252.336 1.913.835 1.913.215 0 .47-.122.606-.58.04-.094.054-.242.054-.404v-1.737zm1.766-5.266v7.367c0 .633.026 1.347.054 1.953h-1.523l-.094-.741h-.027c-.243.458-.768.849-1.374.849-1.4 0-2.048-1.55-2.048-3.394 0-2.29.997-3.408 2.116-3.408.579 0 .942.283 1.104.66h.027v-3.286h1.765zM165.123 34.072c0-.848-.215-1.508-.74-1.508-.58 0-.809.849-.821 1.508h1.561zm-1.575 1.24c.026 1.022.62 1.4 1.4 1.4a3.9 3.9 0 0 0 1.253-.215l.243 1.265c-.459.175-1.146.297-1.819.297-1.791 0-2.775-1.186-2.775-3.246 0-2.21 1.145-3.528 2.64-3.528 1.415 0 2.236 1.117 2.236 3.11 0 .472-.013.728-.054.917h-3.124zM171.521 36.577c.08.027.216.027.31.027.848 0 1.59-.834 1.59-3.34 0-1.859-.485-2.99-1.55-2.99-.121 0-.242 0-.35.04v6.263zm-1.765-7.542c.445-.109 1.092-.175 1.792-.175 1.145 0 1.94.269 2.519.808.781.7 1.185 1.899 1.185 3.663 0 1.832-.472 3.139-1.266 3.84-.606.591-1.509.875-2.774.875-.553 0-1.106-.054-1.456-.095v-8.916zM179.117 34.072c0-.848-.215-1.508-.74-1.508-.58 0-.809.849-.822 1.508h1.562zm-1.576 1.24c.027 1.022.62 1.4 1.401 1.4a3.91 3.91 0 0 0 1.253-.215l.242 1.265c-.458.175-1.145.297-1.818.297-1.792 0-2.775-1.186-2.775-3.246 0-2.21 1.145-3.528 2.64-3.528 1.414 0 2.236 1.117 2.236 3.11 0 .472-.013.728-.054.917h-3.125zM183.333 35.567c0 .229.027.431.094.566.135.404.364.511.565.511.62 0 .836-.915.836-1.953 0-1.252-.297-1.925-.822-1.925-.27 0-.525.255-.593.565-.067.135-.08.31-.08.471v1.765zm-1.765-2.087c0-.795-.027-1.468-.054-2.088h1.536l.094.754h.027c.269-.539.767-.862 1.374-.862 1.455 0 2.047 1.576 2.047 3.394 0 2.344-1.037 3.408-2.141 3.408-.54 0-.902-.337-1.091-.646h-.027v3.124h-1.765V33.48zM191.656 28.698l-1.36 1.885h-1.104l.93-1.885h1.534zm-2.667 5.966c0 1.132.175 2.075.809 2.075.565 0 .713-1.104.713-2.075 0-.902-.148-2.046-.74-2.046-.647 0-.782 1.144-.782 2.046zm3.287 0c0 2.748-1.522 3.422-2.519 3.422-1.575 0-2.519-1.239-2.519-3.381 0-2.37 1.24-3.42 2.546-3.42 1.549 0 2.492 1.306 2.492 3.38zM193.084 36.389c.256.16.741.35 1.185.35.458 0 .714-.202.714-.593 0-.336-.189-.552-.767-.888-1.078-.607-1.334-1.294-1.334-1.9 0-1.185.848-2.074 2.169-2.074.552 0 .983.135 1.333.296l-.31 1.294a1.828 1.828 0 0 0-.916-.27c-.444 0-.66.27-.66.565 0 .297.148.459.768.822.97.553 1.333 1.24 1.333 1.994 0 1.347-.97 2.074-2.33 2.074-.552 0-1.199-.148-1.508-.377l.323-1.293zM197.366 37.978h1.765v-6.586h-1.765v6.586zm1.765-8.337c.013.565-.39.956-.93.956-.484 0-.888-.39-.875-.956-.013-.593.418-.957.902-.957.512 0 .903.364.903.957zM202.31 29.668v1.724h1.293v1.253h-1.293v3.003c0 .768.324.956.674.956.175 0 .309-.013.457-.04l.014 1.373a4.158 4.158 0 0 1-1.078.122c-.512 0-.957-.122-1.266-.418-.363-.35-.566-.848-.566-1.885v-3.111h-.78v-1.253h.78V30.22l1.765-.552zM205.73 34.665c0 1.13.176 2.074.809 2.074.566 0 .714-1.104.714-2.074 0-.903-.148-2.048-.741-2.048-.647 0-.781 1.145-.781 2.048m3.286 0c0 2.747-1.521 3.421-2.518 3.421-1.576 0-2.52-1.24-2.52-3.38 0-2.372 1.24-3.422 2.546-3.422 1.55 0 2.492 1.307 2.492 3.38M209.826 36.389c.255.16.74.35 1.184.35.459 0 .715-.202.715-.593 0-.336-.19-.552-.768-.888-1.078-.607-1.334-1.294-1.334-1.9 0-1.185.849-2.074 2.169-2.074.552 0 .983.135 1.333.296l-.31 1.294a1.828 1.828 0 0 0-.915-.27c-.445 0-.66.27-.66.565 0 .297.147.459.767.822.97.553 1.333 1.24 1.333 1.994 0 1.347-.97 2.074-2.33 2.074-.552 0-1.198-.148-1.508-.377l.324-1.293zM127.422 50.023l.257 2.08c.069.523.128 1.006.167 1.46h.03c.08-.454.177-.987.266-1.44l.424-2.1h.996l.413 2.05c.1.543.188 1.016.247 1.49h.03c.03-.454.089-.958.167-1.48l.296-2.06h1.272l-1.242 4.82h-1.094l-.365-1.685a14.07 14.07 0 0 1-.247-1.498h-.02c-.059.551-.167 1.054-.275 1.507l-.414 1.677h-1.104l-1.184-4.821h1.38zM133.763 50.023l.256 2.08c.07.523.129 1.006.167 1.46h.03c.08-.454.177-.987.266-1.44l.425-2.1h.996l.413 2.05c.1.543.187 1.016.247 1.49h.03c.03-.454.088-.958.166-1.48l.297-2.06h1.271l-1.242 4.82h-1.093l-.366-1.685a14.07 14.07 0 0 1-.246-1.498h-.02c-.06.551-.168 1.054-.276 1.507l-.414 1.677h-1.104l-1.184-4.821h1.38zM140.102 50.023l.257 2.08c.069.523.128 1.006.167 1.46h.03c.08-.454.177-.987.266-1.44l.424-2.1h.996l.413 2.05c.1.543.188 1.016.247 1.49h.03c.03-.454.089-.958.167-1.48l.296-2.06h1.272l-1.242 4.82h-1.094l-.365-1.685a14.07 14.07 0 0 1-.247-1.498h-.02c-.059.551-.167 1.054-.275 1.507l-.414 1.677h-1.104l-1.184-4.821h1.38zM145.555 54.922c-.394 0-.74-.335-.74-.857 0-.493.366-.858.76-.858.414 0 .75.326.75.858 0 .522-.306.857-.76.857h-.01zM147.32 54.844V50.94h-.65v-.917h.65v-.198c0-.541.109-1.044.493-1.439.286-.295.7-.443 1.155-.443.334 0 .59.05.778.108l-.148 1.005a1.137 1.137 0 0 0-.394-.059c-.434 0-.592.376-.592.799v.227h.838v.917h-.838v3.904h-1.291zM150.95 52.418c0 .83.128 1.519.59 1.519.415 0 .523-.808.523-1.519 0-.66-.108-1.498-.542-1.498-.473 0-.572.838-.572 1.498m2.406 0c0 2.011-1.114 2.504-1.844 2.504-1.153 0-1.844-.906-1.844-2.474 0-1.736.908-2.504 1.864-2.504 1.133 0 1.824.956 1.824 2.474M156.313 51.778c0-.129-.02-.256-.05-.355-.059-.207-.198-.394-.414-.394-.463 0-.65.63-.65 1.419 0 .897.255 1.35.62 1.35.168 0 .335-.088.434-.344.04-.109.06-.257.06-.385v-1.291zm1.281 2.523c0 1.036-.187 1.608-.581 1.983-.355.334-.859.531-1.568.531-.444 0-.858-.078-1.203-.226l.237-.996c.246.108.552.207.926.207.651 0 .908-.434.908-1.173v-.296h-.02c-.168.306-.503.483-.868.483-1.084 0-1.509-1.183-1.509-2.336 0-1.607.73-2.534 1.627-2.534.385 0 .7.197.888.562h.02l.069-.483h1.123c-.02.433-.049.946-.049 1.528v2.75zM160.474 52.498c-.434.01-1.026.147-1.026.818 0 .482.267.66.463.66a.561.561 0 0 0 .533-.414c.02-.069.03-.147.03-.227v-.837zm1.262 1.241c0 .385.02.78.079 1.105h-1.164l-.069-.473h-.02c-.266.374-.64.551-1.065.551-.73 0-1.271-.61-1.271-1.468 0-1.262 1.114-1.785 2.208-1.794v-.11c0-.374-.226-.65-.68-.65-.384 0-.7.098-.986.276l-.236-.867c.265-.158.828-.365 1.498-.365 1.469 0 1.706 1.025 1.706 2.001v1.794zM162.88 54.844V50.94h-.651v-.917h.65v-.198c0-.541.11-1.044.494-1.439.285-.295.7-.443 1.154-.443.334 0 .59.05.778.108l-.147 1.005a1.137 1.137 0 0 0-.395-.059c-.434 0-.592.376-.592.799v.227h.838v.917h-.838v3.904h-1.291zM165.473 54.844h1.292v-4.82h-1.292v4.82zm1.291-6.103c.01.414-.286.7-.68.7-.355 0-.65-.286-.64-.7-.01-.434.305-.7.66-.7.374 0 .66.266.66.7zM167.671 51.472c0-.532-.03-.996-.04-1.449h1.115l.06.552h.019c.257-.384.67-.632 1.173-.632.917 0 1.282.73 1.282 1.806v3.094h-1.291v-3.016c0-.404-.1-.799-.474-.799-.217 0-.395.148-.483.434-.04.1-.069.257-.069.444v2.937h-1.292v-3.37zM172.946 54.922c-.394 0-.74-.335-.74-.857 0-.493.366-.858.76-.858.414 0 .75.326.75.858 0 .522-.306.857-.76.857h-.01zM176.713 51.778c0-.129-.02-.256-.049-.355-.06-.207-.198-.394-.414-.394-.464 0-.651.63-.651 1.419 0 .897.256 1.35.621 1.35.167 0 .335-.088.433-.344.04-.109.06-.257.06-.385v-1.291zm1.282 2.523c0 1.036-.188 1.608-.582 1.983-.355.334-.858.531-1.567.531-.444 0-.859-.078-1.204-.226l.237-.996c.246.108.552.207.927.207.65 0 .907-.434.907-1.173v-.296h-.02c-.168.306-.503.483-.868.483-1.084 0-1.508-1.183-1.508-2.336 0-1.607.73-2.534 1.627-2.534.384 0 .7.197.887.562h.02l.07-.483h1.123c-.02.433-.05.946-.05 1.528v2.75zM180.006 52.418c0 .83.129 1.519.591 1.519.415 0 .523-.808.523-1.519 0-.66-.108-1.498-.542-1.498-.473 0-.572.838-.572 1.498m2.406 0c0 2.011-1.115 2.504-1.844 2.504-1.154 0-1.844-.906-1.844-2.474 0-1.736.907-2.504 1.864-2.504 1.133 0 1.824.956 1.824 2.474M184.02 50.023l.364 2.149c.069.433.138.857.206 1.35h.02c.06-.493.119-.896.188-1.35l.374-2.149h1.273l-1.292 4.82h-1.193l-1.311-4.82h1.37zM187.303 54.922c-.394 0-.74-.335-.74-.857 0-.493.366-.858.76-.858.413 0 .75.326.75.858 0 .522-.306.857-.76.857h-.01zM191.513 54.765c-.129.059-.454.138-.819.138-1.222 0-2.021-.848-2.021-2.425 0-1.49.878-2.524 2.21-2.524.304 0 .58.07.708.128l-.167 1.016a1.345 1.345 0 0 0-.483-.09c-.621 0-.986.592-.986 1.43 0 .878.365 1.41.966 1.41.187 0 .345-.03.483-.099l.109 1.016zM193.14 52.418c0 .83.129 1.519.591 1.519.415 0 .523-.808.523-1.519 0-.66-.108-1.498-.542-1.498-.474 0-.572.838-.572 1.498m2.406 0c0 2.011-1.115 2.504-1.844 2.504-1.154 0-1.844-.906-1.844-2.474 0-1.736.907-2.504 1.863-2.504 1.134 0 1.825.956 1.825 2.474M100.694 60.744h2.483V5.588h-2.483zM10.782 20.842a2.347 2.347 0 0 1-2.345 2.344 2.342 2.342 0 0 1-2.342-2.344A2.34 2.34 0 0 1 8.437 18.5a2.346 2.346 0 0 1 2.345 2.342M16.552 20.842a2.344 2.344 0 0 1-2.342 2.344 2.343 2.343 0 0 1 0-4.686 2.343 2.343 0 0 1 2.342 2.342M22.326 20.842a2.344 2.344 0 0 1-2.344 2.344 2.344 2.344 0 0 1 0-4.686 2.343 2.343 0 0 1 2.344 2.342M10.782 26.512a2.344 2.344 0 1 1-4.69-.006 2.344 2.344 0 0 1 4.69.006M16.552 26.512a2.342 2.342 0 0 1-4.682 0 2.341 2.341 0 1 1 4.682 0M19.982 24.537a1.972 1.972 0 1 0 1.973 1.975 1.976 1.976 0 0 0-1.973-1.975m0 4.686a2.714 2.714 0 0 1 0-5.428 2.718 2.718 0 0 1 2.715 2.716 2.716 2.716 0 0 1-2.715 2.712M10.782 32.179a2.343 2.343 0 0 1-4.687 0 2.342 2.342 0 0 1 2.342-2.348 2.347 2.347 0 0 1 2.345 2.348M14.21 30.2c-1.086 0-1.97.888-1.97 1.978a1.972 1.972 0 0 0 3.942 0c0-1.09-.884-1.977-1.972-1.977m0 4.688a2.714 2.714 0 0 1 0-5.43 2.714 2.714 0 1 1 0 5.43M19.982 30.2c-1.086 0-1.969.888-1.969 1.978a1.972 1.972 0 0 0 3.942 0c0-1.09-.884-1.977-1.973-1.977m0 4.688a2.713 2.713 0 0 1-2.71-2.71 2.717 2.717 0 0 1 2.71-2.72 2.72 2.72 0 0 1 2.715 2.72 2.715 2.715 0 0 1-2.715 2.71M26.994 18.716h9.494v2.888h-5.985v3.557h5.588v2.863h-5.588v6.26h-3.509zM40.253 28.627c0 1.94.807 3.395 2.312 3.395 1.387 0 2.238-1.363 2.238-3.419 0-1.665-.649-3.372-2.238-3.372-1.663 0-2.312 1.734-2.312 3.395m8.182-.116c0 4.135-2.938 6.03-5.965 6.03-3.306 0-5.843-2.17-5.843-5.82 0-3.673 2.399-6.006 6.051-6.006 3.445 0 5.757 2.378 5.757 5.796M56.932 27.586c0-.208-.02-.439-.069-.648-.252-.922-.92-1.544-1.896-1.544-1.29 0-2.303 1.155-2.303 3.21 0 1.687.827 3 2.283 3 .923 0 1.638-.598 1.873-1.407.093-.276.112-.648.112-.948v-1.663zm3.516 5.06c0 2.17-.442 3.952-1.733 5.083-1.223 1.062-2.911 1.387-4.575 1.387-1.5 0-3.048-.302-4.064-.858l.689-2.68c.72.418 1.945.857 3.282.857 1.661 0 2.932-.88 2.932-2.98v-.716h-.047c-.668.924-1.757 1.453-3.047 1.453-2.793 0-4.781-2.263-4.781-5.496 0-3.65 2.335-5.959 5.128-5.959 1.549 0 2.518.668 3.094 1.617h.047l.119-1.362h3.047c-.046.737-.09 1.684-.09 3.371v6.283zM68.119 28.95c-1.85 0-3.28.44-3.28 1.779 0 .902.6 1.339 1.384 1.339.855 0 1.595-.576 1.824-1.295.046-.184.072-.39.072-.598V28.95zm3.392 2.61c0 1.06.05 2.103.188 2.725h-3.166l-.209-1.129h-.07c-.737.901-1.89 1.384-3.235 1.384-2.283 0-3.647-1.662-3.647-3.466 0-2.935 2.634-4.317 6.631-4.317v-.14c0-.625-.325-1.479-2.06-1.479-1.156 0-2.38.394-3.115.854l-.647-2.263c.786-.437 2.332-1.015 4.386-1.015 3.77 0 4.944 2.216 4.944 4.897v3.95zM73.548 34.285v-8.707h-1.502v-2.587h1.502v-.44c0-1.363.414-2.864 1.41-3.788.903-.831 2.104-1.132 3.14-1.132.761 0 1.363.115 1.85.23l-.14 2.706a3.773 3.773 0 0 0-1.131-.163c-1.155 0-1.641.903-1.641 2.01v.577H79.3v2.587h-2.238v8.707h-3.514zM85.84 18.07l-2.818 3.512h-2.406l1.989-3.512h3.235zm-5.498 16.215h3.508V22.992h-3.508v11.293zM85.239 26.596c0-1.41-.047-2.59-.094-3.604h3.051l.162 1.571h.07c.463-.74 1.592-1.826 3.486-1.826 2.308 0 4.04 1.545 4.04 4.874v6.673h-3.509v-6.26c0-1.453-.504-2.446-1.777-2.446-.97 0-1.549.669-1.803 1.315-.09.232-.112.555-.112.88v6.511h-3.514v-7.688zM6.092 46.736l.251-.803c.12.097.299.178.537.243.234.068.46.103.68.103.335 0 .596-.082.799-.243a.815.815 0 0 0 .3-.666.93.93 0 0 0-.228-.626c-.153-.183-.408-.402-.779-.665-.36-.263-.625-.51-.793-.738-.165-.229-.249-.513-.249-.854 0-.55.176-.981.522-1.295.349-.313.795-.467 1.351-.467.625 0 1.042.054 1.244.165l-.234.807a1.204 1.204 0 0 0-.393-.18 1.707 1.707 0 0 0-.51-.083c-.356 0-.64.08-.845.24-.203.162-.31.393-.31.699 0 .126.038.25.1.37.068.117.155.224.267.32.105.095.34.275.684.532.347.26.601.522.764.79.159.265.243.577.243.933 0 .552-.188.977-.555 1.273-.374.294-.864.443-1.468.443-.217 0-.462-.032-.735-.094a3.059 3.059 0 0 1-.643-.204M11.053 44.246c.212.097.454.142.743.142.433 0 .789-.067 1.063-.207.275-.143.408-.345.408-.615 0-.341-.231-.51-.703-.51-.72 0-1.228.393-1.511 1.19m-.139.577c-.023.133-.037.26-.037.384 0 .365.101.648.309.846.203.196.493.295.86.295.327 0 .654-.122.99-.362l-.081.809c-.446.142-.837.218-1.178.218-1.152 0-1.726-.645-1.726-1.933 0-.756.244-1.395.727-1.917.48-.517 1.092-.778 1.82-.778.444 0 .794.096 1.06.285.266.188.393.458.393.807 0 .485-.202.868-.616 1.15-.409.28-.911.421-1.508.421-.4 0-.741-.076-1.013-.225M16.419 43.023c-.318 0-.59.127-.807.372a1.28 1.28 0 0 0-.328.878c0 .604.229.909.69.909.306 0 .584-.154.824-.458.238-.304.359-.624.359-.966a.732.732 0 0 0-.2-.536.74.74 0 0 0-.538-.199m-2.487 5.157l.372-.585c.514.257.931.384 1.261.384.368 0 .678-.068.921-.204.24-.136.367-.327.367-.57a.396.396 0 0 0-.127-.303c-.078-.08-.223-.134-.414-.166l-.736-.128c-.294-.072-.445-.225-.445-.453 0-.184.235-.365.713-.553l-.14.005c-.327 0-.616-.122-.86-.364a1.19 1.19 0 0 1-.367-.878c0-.584.188-1.06.562-1.427.375-.367.853-.553 1.438-.553.42 0 .75.101.987.3l.379-.424.437.451-.412.429c.08.113.116.293.116.536 0 .48-.116.888-.358 1.23a1.917 1.917 0 0 1-.953.718c-.385.138-.579.265-.579.384 0 .099.053.146.154.146.043 0 .101-.006.177-.02.072-.01.133-.015.173-.015.693 0 1.04.312 1.04.937 0 .493-.22.884-.657 1.181-.438.295-.956.44-1.557.44-.611 0-1.106-.165-1.492-.498M19.849 42.47l-.521 2.845a1.809 1.809 0 0 0-.035.335c0 .467.24.698.727.698.297 0 .58-.11.853-.336.273-.22.437-.487.492-.792l.51-2.75h.837l-.817 4.459h-.834l.116-.628c-.313.475-.85.712-1.615.712-.35 0-.619-.103-.813-.309-.197-.207-.289-.495-.289-.874 0-.134.01-.279.037-.432l.519-2.929h.833zM26.065 43.254a.908.908 0 0 0-.584-.199c-.277 0-.548.127-.802.387s-.416.57-.483.932l-.45 2.555h-.791l.786-4.46h.793l-.124.713c.376-.53.854-.797 1.424-.797.098 0 .249.02.457.06l-.226.809zM27.782 40.722a.53.53 0 0 1 .388.158c.11.107.162.24.162.394a.527.527 0 0 1-.162.39.538.538 0 0 1-.388.16.555.555 0 0 1-.394-.16.535.535 0 0 1-.162-.39.542.542 0 0 1 .556-.552zm-1.28 6.207l.67-3.793h-.589l.148-.652h1.36l-.787 4.445h-.802zM31.985 43.706c.005-.024-.033-.102-.11-.229a.931.931 0 0 0-.29-.304.627.627 0 0 0-.353-.113c-.492 0-.9.2-1.227.599-.318.4-.484.909-.484 1.53 0 .785.324 1.179.97 1.179.295 0 .564-.144.819-.431.249-.287.417-.657.491-1.114l.184-1.117zm-.55 3.223l.097-.512c-.323.394-.766.594-1.325.594-.48 0-.857-.152-1.128-.446-.273-.296-.412-.697-.412-1.205 0-.87.235-1.58.701-2.135a2.236 2.236 0 0 1 1.79-.832c.42 0 .748.178.97.528l.42-2.278h.756l-1.086 6.286h-.784zM36.372 43.212c-.073-.12-.327-.178-.755-.178-.44 0-.826.23-1.161.697-.333.466-.498 1.05-.498 1.748 0 .592.264.889.79.889.272 0 .53-.144.776-.426.238-.287.408-.65.5-1.094l.348-1.636zm.871-.462l-.544 2.595a1.996 1.996 0 0 0-.032.384c0 .43.067.832.203 1.2h-.808a2.474 2.474 0 0 1-.139-.448c-.13.159-.324.287-.581.386-.26.097-.533.146-.825.146-.435 0-.782-.13-1.025-.387-.243-.26-.368-.633-.368-1.12 0-.818.244-1.541.724-2.17.478-.635 1.1-.951 1.861-.951.715 0 1.227.122 1.534.365zM40.786 43.706c.011-.024-.03-.102-.108-.229a.93.93 0 0 0-.286-.304.643.643 0 0 0-.357-.113c-.49 0-.896.2-1.22.599-.324.4-.49.909-.49 1.53 0 .785.328 1.179.976 1.179.29 0 .559-.144.813-.431.255-.287.42-.657.492-1.114l.18-1.117zm-.544 3.223l.095-.512c-.321.394-.767.594-1.322.594-.481 0-.86-.152-1.13-.446-.274-.296-.408-.697-.408-1.205 0-.87.232-1.58.699-2.135a2.235 2.235 0 0 1 1.787-.832c.427 0 .75.178.973.528l.419-2.278h.754l-1.083 6.286h-.784zM45.008 46.053c.052.085.154.16.307.225.15.058.295.09.428.09.582 0 1.028-.198 1.344-.592.312-.391.471-.928.471-1.608 0-.364-.09-.64-.278-.82-.188-.185-.463-.274-.83-.274-.16 0-.348.054-.559.168-.211.113-.362.23-.457.353l-.426 2.458zm-.113.651l-.35 1.994h-.795l.876-4.894c.04-.215.061-.425.061-.627 0-.213-.02-.422-.066-.618l.798-.15c.012.034.035.226.072.57.131-.162.316-.299.565-.405.243-.114.472-.164.683-.164.556 0 .97.134 1.244.41.275.275.415.689.415 1.241 0 .843-.232 1.551-.698 2.118-.47.572-1.086.854-1.847.854a2.01 2.01 0 0 1-.565-.095c-.21-.063-.34-.141-.393-.234zM51.86 43.212c-.079-.12-.328-.178-.762-.178s-.82.23-1.154.697c-.334.466-.499 1.05-.499 1.748 0 .592.258.889.787.889.275 0 .533-.144.779-.426.237-.287.408-.65.5-1.094l.348-1.636zm.87-.462l-.544 2.595c-.02.105-.032.233-.032.384 0 .43.07.832.202 1.2h-.807a2.789 2.789 0 0 1-.142-.448c-.127.159-.323.287-.584.386-.255.097-.53.146-.82.146-.433 0-.781-.13-1.023-.387-.244-.26-.369-.633-.369-1.12 0-.818.238-1.541.722-2.17.483-.635 1.102-.951 1.857-.951.715 0 1.234.122 1.54.365zM56.098 43.254a.915.915 0 0 0-.587-.199c-.276 0-.55.127-.8.387-.256.26-.418.57-.485.932l-.448 2.555h-.793l.787-4.46h.793l-.124.713c.382-.53.86-.797 1.426-.797.096 0 .25.02.455.06l-.224.809zM59.465 43.212c-.078-.12-.328-.178-.759-.178-.436 0-.824.23-1.157.697-.333.466-.498 1.05-.498 1.748 0 .592.264.889.79.889.272 0 .53-.144.776-.426.238-.287.408-.65.5-1.094l.348-1.636zm.877-.462l-.55 2.595c-.02.105-.032.233-.032.384 0 .43.067.832.203 1.2h-.807a2.461 2.461 0 0 1-.14-.448 1.425 1.425 0 0 1-.581.386c-.26.097-.533.146-.825.146-.44 0-.782-.13-1.025-.387-.243-.26-.368-.633-.368-1.12 0-.818.237-1.541.724-2.17.477-.635 1.1-.951 1.856-.951.714 0 1.232.122 1.545.365zM63.705 43.096h-.512l.127-.627h.518l.182-.931.906-.343-.295 1.274h1.224l-.136.627h-1.223l-.464 2.216c-.038.17-.054.303-.054.397 0 .424.208.639.632.639.207 0 .426-.053.658-.154l-.026.695c-.226.083-.597.124-1.103.124-.315 0-.565-.098-.738-.291-.18-.199-.265-.467-.265-.809 0-.078.014-.172.033-.286l.536-2.532zM67.529 42.47l-.519 2.845c-.02.12-.031.234-.031.335 0 .467.237.698.72.698.3 0 .585-.11.86-.336.275-.22.434-.487.492-.792l.506-2.75h.836l-.818 4.459h-.832l.116-.628c-.312.475-.85.712-1.617.712-.347 0-.616-.103-.807-.309-.197-.207-.295-.495-.295-.874 0-.134.017-.279.04-.432l.518-2.929h.83zM76.073 43.706c0-.024-.033-.102-.11-.229a.938.938 0 0 0-.29-.304.639.639 0 0 0-.356-.113c-.492 0-.903.2-1.224.599-.322.4-.484.909-.484 1.53 0 .785.324 1.179.97 1.179.29 0 .564-.144.813-.431.255-.287.42-.657.495-1.114l.186-1.117zm-.55 3.223l.092-.512c-.321.394-.76.594-1.32.594-.483 0-.86-.152-1.132-.446-.272-.296-.407-.697-.407-1.205 0-.87.234-1.58.694-2.135.472-.553 1.068-.832 1.794-.832.423 0 .744.178.973.528l.42-2.278h.75l-1.083 6.286h-.782zM78.801 40.722c.157 0 .287.052.394.158.11.107.162.24.162.394a.523.523 0 0 1-.162.39.541.541 0 0 1-.394.16.535.535 0 0 1-.388-.16.525.525 0 0 1-.161-.39.53.53 0 0 1 .161-.394.528.528 0 0 1 .388-.158zm-1.273 6.207l.675-3.793h-.594l.148-.652h1.36l-.788 4.445h-.801zM82.382 46.929l.468-2.591c.044-.233.061-.425.061-.577 0-.473-.243-.706-.734-.706-.189 0-.392.053-.609.164a1.719 1.719 0 0 0-.51.397l-.578 3.313h-.802l.6-3.38c.012-.077.022-.17.022-.275 0-.283-.031-.53-.089-.737l.767-.152c.073.406.11.629.11.663.338-.44.821-.663 1.464-.663.805 0 1.207.411 1.207 1.234 0 .165-.02.346-.054.549l-.478 2.761h-.845zM85.232 44.246c.212.097.46.142.747.142.429 0 .787-.067 1.062-.207.27-.143.408-.345.408-.615 0-.341-.231-.51-.709-.51-.714 0-1.218.393-1.508 1.19m-.135.577a2.01 2.01 0 0 0-.041.384c0 .365.104.648.31.846.202.196.492.295.862.295.327 0 .657-.122.99-.362l-.084.809c-.446.142-.833.218-1.18.218-1.147 0-1.723-.645-1.723-1.933 0-.756.24-1.395.726-1.917.484-.517 1.088-.778 1.824-.778.44 0 .793.096 1.057.285.266.188.393.458.393.807 0 .485-.206.868-.612 1.15-.413.28-.916.421-1.512.421-.403 0-.736-.076-1.01-.225M91.64 43.254a.886.886 0 0 0-.578-.199c-.282 0-.55.127-.805.387-.252.26-.414.57-.48.932l-.452 2.555h-.793l.787-4.46h.793l-.124.713c.38-.53.859-.797 1.427-.797.097 0 .251.02.454.06l-.229.809zM92.642 45.24c0 .752.315 1.128.948 1.128.467 0 .84-.23 1.116-.683.277-.454.416-.981.416-1.577 0-.718-.321-1.074-.946-1.074-.322 0-.602.114-.846.34a1.986 1.986 0 0 0-.526.872 3.594 3.594 0 0 0-.162.993m-.831.05c0-.797.229-1.48.7-2.05.466-.567 1.057-.854 1.778-.854.541 0 .95.149 1.238.443.29.292.432.707.432 1.245 0 .428-.09.872-.255 1.334a2.59 2.59 0 0 1-.839 1.149c-.388.303-.852.457-1.395.457-.539 0-.947-.151-1.234-.451-.283-.301-.425-.726-.425-1.274" mask="url(#d)"/>
    </g>
</svg>
