<?xml version="1.0" encoding="UTF-8"?>
<svg width="205px" height="20px" viewBox="0 0 205 20" version="1.1" xmlns="http://www.w3.org/2000/svg" xmlns:xlink="http://www.w3.org/1999/xlink">
    <!-- Generator: Sketch 58 (84663) - https://sketch.com -->
    <title>Group 105</title>
    <desc>Created with Sketch.</desc>
    <g id="nueva-version" stroke="none" stroke-width="1" fill="none" fill-rule="evenodd">
        <g id="Fold1_home" transform="translate(-133.000000, -2993.000000)" fill="#FFFFFF">
            <g id="Group-105" transform="translate(235.000000, 3003.500000) rotate(90.000000) translate(-235.000000, -3003.500000) translate(225.000000, 2901.000000)">
                <path d="M7.02074,127.9285 L6.90874,126.8505 C7.27414,126.7917 7.54154,126.6545 7.70534,126.4543 C7.87894,126.2569 7.96434,125.9769 7.96434,125.6577 C7.96434,125.2951 7.90694,125.0347 7.74594,124.8415 C7.58494,124.6679 7.41554,124.5797 7.20274,124.5797 C7.08234,124.5797 6.97594,124.6189 6.88634,124.6931 C6.80234,124.7743 6.71274,124.8961 6.64134,125.0879 C6.60634,125.2251 6.52234,125.5149 6.41454,125.9783 C6.26894,126.5607 6.07714,127.0045 5.87274,127.2159 C5.56054,127.5561 5.19934,127.7339 4.76394,127.7339 C4.48674,127.7339 4.21094,127.6569 3.97994,127.5057 C3.72654,127.3293 3.54034,127.1165 3.43674,126.8043 C3.28974,126.5103 3.22814,126.1519 3.22814,125.7347 C3.22814,125.0361 3.37794,124.5279 3.67194,124.1737 C3.97994,123.8153 4.38034,123.6543 4.88854,123.6361 L4.93754,124.7393 C4.66034,124.7743 4.45174,124.8737 4.32714,125.0361 C4.20674,125.1929 4.13534,125.4239 4.13534,125.7445 C4.13534,126.0609 4.21094,126.3087 4.34114,126.4865 C4.42934,126.6167 4.54974,126.6741 4.67434,126.6741 C4.81294,126.6741 4.91934,126.6237 5.01174,126.5103 C5.13214,126.3507 5.26234,126.0329 5.38134,125.4981 C5.51994,124.9521 5.64594,124.5517 5.78174,124.2983 C5.91194,124.0407 6.11214,123.8321 6.33894,123.6977 C6.57974,123.5451 6.86394,123.4569 7.20274,123.4569 C7.51074,123.4569 7.81594,123.5451 8.09314,123.7481 C8.37874,123.8965 8.56494,124.1653 8.71194,124.4691 C8.85474,124.7869 8.91634,125.1929 8.91634,125.6773 C8.91634,126.3493 8.75114,126.8771 8.41794,127.2579 C8.11974,127.6429 7.64374,127.8585 7.02074,127.9285" id="Fill-13"></path>
                <path d="M3.32516,122.53486 L3.32516,121.44286 L6.29876,121.44286 C6.76636,121.44286 7.07296,121.41066 7.20316,121.39946 C7.43416,121.33786 7.62456,121.23706 7.75476,121.06346 C7.87936,120.86886 7.96336,120.64206 7.96336,120.32986 C7.96336,119.99946 7.90456,119.77686 7.77716,119.60606 C7.64276,119.45206 7.47336,119.36246 7.29976,119.32606 C7.10796,119.29106 6.80136,119.27846 6.36456,119.27846 L3.32516,119.27986 L3.32516,118.16406 L6.20076,118.16406 C6.87696,118.16406 7.33056,118.18506 7.59796,118.25646 C7.87376,118.30546 8.11876,118.42306 8.28396,118.59666 C8.47016,118.75346 8.63116,118.95506 8.74596,119.23506 C8.85376,119.49406 8.91536,119.85666 8.91536,120.29486 C8.91536,120.81986 8.85376,121.21046 8.72356,121.48906 C8.60876,121.76626 8.44776,121.95666 8.25736,122.12046 C8.07116,122.28286 7.86536,122.38646 7.64696,122.44246 C7.33056,122.51246 6.87696,122.53486 6.24976,122.53486 L3.32516,122.53486 Z" id="Fill-15"></path>
                <path d="M4.24944,115.88346 L5.82164,115.88206 L5.82164,115.28846 C5.82164,114.85026 5.79504,114.54786 5.73344,114.41066 C5.66624,114.26926 5.58924,114.15306 5.46884,114.05226 C5.33584,113.97386 5.19864,113.95566 5.03344,113.95566 C4.83324,113.95566 4.67364,114.00186 4.52104,114.10826 C4.40064,114.23706 4.31664,114.38266 4.29424,114.56046 C4.26764,114.68366 4.24944,114.96786 4.24944,115.35286 L4.24944,115.88346 Z M8.80924,116.99786 L3.32404,116.99786 L3.32404,115.22126 C3.32404,114.53666 3.35484,114.10826 3.41224,113.90386 C3.48364,113.57346 3.67124,113.31866 3.93724,113.11286 C4.21024,112.90426 4.57424,112.80206 5.01104,112.80206 C5.35404,112.80206 5.62424,112.85806 5.86924,112.97846 C6.08484,113.11286 6.27524,113.26966 6.41384,113.45306 C6.53424,113.63226 6.63084,113.83526 6.66304,114.00746 C6.71204,114.27206 6.73724,114.66966 6.73724,115.17646 L6.73724,115.88206 L8.80784,115.88206 L8.80924,116.99786 Z" id="Fill-17"></path>
                <polygon id="Fill-19" points="8.8077 111.87624 3.3239 111.87624 3.3225 107.82464 4.2493 107.82464 4.2493 110.77444 5.4785 110.77444 5.4771 108.01644 6.3899 108.01644 6.3899 110.77444 7.8767 110.77444 7.8767 107.71404 8.8077 107.71264"></polygon>
                <path d="M5.64258,105.6692 L5.64258,104.8474 C5.64118,104.3154 5.62298,103.9822 5.57958,103.852 C5.53058,103.7204 5.45498,103.6028 5.33458,103.537 C5.22678,103.4474 5.09798,103.4082 4.92858,103.4082 C4.74658,103.4082 4.59118,103.4684 4.48478,103.572 C4.37278,103.67 4.29718,103.8198 4.26638,103.9892 C4.26638,104.0732 4.24818,104.3574 4.24818,104.7984 L4.24818,105.6692 L5.64258,105.6692 Z M8.80798,106.7696 L3.32278,106.771 L3.32278,104.4316 C3.32278,103.8646 3.36758,103.4236 3.47818,103.1702 C3.57198,102.8986 3.74558,102.6746 3.98918,102.508 C4.24398,102.3624 4.51978,102.2882 4.85718,102.2882 C5.26318,102.2882 5.61458,102.4058 5.87218,102.6382 C6.15358,102.8916 6.31038,103.2388 6.38878,103.7344 C6.51898,103.481 6.67438,103.2948 6.84798,103.145 C7.01598,102.977 7.30998,102.7642 7.74258,102.4968 L8.80658,101.8402 L8.80658,103.1688 L7.62218,103.964 C7.18258,104.2398 6.90538,104.4316 6.79898,104.5422 C6.68278,104.6472 6.62958,104.7648 6.57638,104.8796 C6.54138,104.9972 6.51898,105.1918 6.51898,105.4396 L6.51898,105.6692 L8.80658,105.6678 L8.80798,106.7696 Z" id="Fill-21"></path>
                <polygon id="Fill-23" points="8.8063 101.27096 3.3225 101.27096 3.3225 100.16076 8.8063 100.15936"></polygon>
                <polygon id="Fill-25" points="8.8063 99.08486 3.3225 99.08626 3.3211 98.02646 6.9891 95.76966 3.3211 95.76966 3.3211 94.74906 8.8049 94.74906 8.8049 95.85086 5.2055 98.06986 8.8063 98.06986"></polygon>
                <polygon id="Fill-27" points="8.8049 92.32552 4.2465 92.32552 4.2465 93.96632 3.3211 93.96632 3.3211 89.59972 4.2465 89.59972 4.2465 91.22652 8.8049 91.22652"></polygon>
                <polygon id="Fill-29" points="8.8049 88.88292 3.3197 88.88292 3.3197 84.81312 4.2451 84.81312 4.2465 87.77412 5.4743 87.77412 5.4743 85.01892 6.3857 85.01892 6.3871 87.77412 7.8739 87.77412 7.8739 84.71232 8.8035 84.71232"></polygon>
                <polygon id="Fill-31" points="8.8035 83.7697 3.3197 83.7711 3.3197 82.6875 6.9863 80.4363 3.3197 80.4363 3.3197 79.4045 8.8035 79.4031 8.8035 80.5357 5.2027 82.7351 8.8035 82.7351"></polygon>
                <path d="M4.24398,77.13328 L7.87278,77.13328 L7.87278,76.30728 C7.87278,75.99648 7.86298,75.76548 7.82798,75.63108 C7.78318,75.46588 7.69918,75.29648 7.60958,75.18028 C7.49758,75.06268 7.31558,74.97168 7.06638,74.90028 C6.83118,74.80928 6.49238,74.77708 6.06958,74.77848 C5.65518,74.77848 5.31358,74.80928 5.07698,74.90028 C4.85858,74.97168 4.67658,75.08788 4.55618,75.20128 C4.42318,75.34268 4.35038,75.51628 4.29718,75.73608 C4.26218,75.87888 4.24398,76.17568 4.24398,76.62648 L4.24398,77.13328 Z M3.31858,78.23788 L3.31858,76.21908 C3.31858,75.75848 3.34938,75.41688 3.42918,75.16208 C3.51878,74.84708 3.68398,74.57408 3.93178,74.34728 C4.17258,74.12328 4.45678,73.94688 4.82218,73.82928 C5.17498,73.69628 5.60618,73.6304561 6.10878,73.6304561 C6.57218,73.62908 6.95858,73.68928 7.28058,73.80128 C7.68098,73.95388 8.00578,74.13728 8.25498,74.39488 C8.44118,74.59228 8.58958,74.84708 8.68758,75.16068 C8.76318,75.41548 8.80238,75.74868 8.80238,76.14488 L8.80378,78.23648 L3.31858,78.23788 Z" id="Fill-33"></path>
                <polygon id="Fill-35" points="8.80224 72.70088 3.31844 72.70228 3.31704 68.63248 4.24384 68.63108 4.24384 71.59628 5.47304 71.59628 5.47164 68.84948 6.38444 68.84948 6.38444 71.59628 7.87124 71.59628 7.87124 68.51488 8.80224 68.51488"></polygon>
                <polygon id="Fill-37" points="8.80084 67.57534 3.31704 67.57674 3.31704 66.50714 6.98504 64.25594 3.31704 64.25594 3.31704 63.22554 8.80084 63.22554 8.80084 64.33154 5.20004 66.54354 8.80084 66.54354"></polygon>
                <path d="M6.7924,58.53134 L7.1256,57.47154 C7.736,57.64654 8.1602,57.90834 8.4612,58.29054 C8.7594,58.67834 8.9078,59.15294 8.9078,59.75214 C8.9078,60.46754 8.6404,61.08354 8.1462,61.54134 C7.6562,61.99914 6.9716,62.22874 6.1078,62.22874 C5.1992,62.22874 4.4908,61.99914 3.984,61.54134 C3.4772,61.08354 3.2182,60.45494 3.2182,59.68634 C3.2182,59.00594 3.4282,58.46414 3.8104,58.05394 C4.0554,57.79774 4.3928,57.61014 4.838,57.48554 L5.0914,58.58594 C4.803,58.65314 4.5804,58.78474 4.411,58.99334 C4.2598,59.18514 4.1716,59.42874 4.1716,59.73534 C4.1716,60.12034 4.3102,60.46754 4.6028,60.72514 C4.8926,60.97854 5.363,61.09474 6.0182,61.09474 C6.7168,61.09474 7.2166,60.97854 7.4966,60.72514 C7.8088,60.47594 7.9544,60.15674 7.9544,59.75214 C7.9544,59.47494 7.862,59.21174 7.6646,58.99334 C7.4784,58.79454 7.1886,58.62094 6.7924,58.53134" id="Fill-39"></path>
                <polygon id="Fill-41" points="8.79944 56.55034 3.31564 56.55034 3.31564 55.44014 8.79944 55.43874"></polygon>
                <path d="M6.63112,51.48626 L4.58852,52.22546 L6.63112,52.98146 L6.63112,51.48626 Z M8.79972,49.43386 L8.79972,50.64066 L7.55232,51.13486 L7.55232,53.30066 L8.79972,53.76126 L8.79972,54.94986 L3.31592,52.80366 L3.31592,51.63606 L8.79972,49.43386 Z" id="Fill-43"></path>
                <polygon id="Fill-45" points="8.79804 46.99912 3.31424 47.00052 3.31424 43.23452 4.23964 43.23452 4.23964 45.89312 5.55004 45.89312 5.54864 43.59852 6.45584 43.59852 6.45724 45.89312 8.79804 45.89312"></polygon>
                <polygon id="Fill-47" points="8.79804 42.34804 3.31424 42.34804 3.31424 41.25604 8.79804 41.25464"></polygon>
                <polygon id="Fill-49" points="8.79804 40.1905 3.31284 40.1919 3.31284 39.0985 6.98084 36.8571 3.31284 36.8571 3.31284 35.8407 8.79664 35.8407 8.79664 36.9341 5.19724 39.1447 8.79664 39.1447"></polygon>
                <path d="M6.62832,31.74402 L4.58572,32.50002 L6.62832,33.25322 L6.62832,31.74402 Z M8.79552,29.70982 L8.79692,30.90262 L7.54952,31.38562 L7.54952,33.58222 L8.79692,34.04562 L8.79692,35.22442 L3.31312,33.07962 L3.31312,31.91902 L8.79552,29.70982 Z" id="Fill-51"></path>
                <polygon id="Fill-53" points="8.79538 29.1109 3.31158 29.1123 3.31158 28.0343 6.97958 25.7859 3.31158 25.7873 3.31158 24.7597 8.79538 24.7583 8.79538 25.8671 5.19458 28.0847 8.79538 28.0833"></polygon>
                <path d="M6.78694,20.07922 L7.12014,19.00682 C7.73054,19.15802 8.15474,19.43382 8.45574,19.83002 C8.75394,20.20662 8.90234,20.68542 8.90234,21.27622 C8.90234,22.01402 8.63494,22.61882 8.14074,23.07522 C7.65074,23.53582 6.96614,23.78362 6.10234,23.78362 C5.19374,23.78362 4.48534,23.53722 3.97854,23.07662 C3.47174,22.60202 3.21274,21.98322 3.21274,21.22862 C3.21274,20.54122 3.42274,19.99662 3.80494,19.57942 C4.04994,19.33722 4.38734,19.14962 4.83254,19.01382 L5.08594,20.11562 C4.79754,20.17302 4.57494,20.30182 4.40554,20.51602 C4.25434,20.73022 4.16614,20.96402 4.16614,21.25522 C4.16614,21.67382 4.30474,22.01402 4.59734,22.25482 C4.88714,22.51382 5.35754,22.63702 6.01274,22.63702 C6.71134,22.63702 7.21114,22.51382 7.49114,22.27162 C7.80334,22.01402 7.94894,21.69062 7.94894,21.30142 C7.94894,20.98642 7.85654,20.74562 7.65914,20.52442 C7.47294,20.33122 7.18314,20.17302 6.78694,20.07922" id="Fill-55"></path>
                <polygon id="Fill-57" points="8.79398 18.0831 3.31018 18.0831 3.31018 16.9757 8.79398 16.9743"></polygon>
                <polygon id="Fill-59" points="8.79398 15.91744 3.31018 15.91884 3.30878 11.83784 4.23558 11.83784 4.23558 14.81704 5.46478 14.81564 5.46338 12.05204 6.37618 12.05064 6.37618 14.81564 7.86298 14.81564 7.86298 11.74824 8.79398 11.74824"></polygon>
                <path d="M5.64678,9.68996 L5.64678,8.87516 C5.64538,8.35436 5.61038,8.00296 5.56558,7.87836 C5.51658,7.74956 5.44238,7.64456 5.32198,7.56476 C5.21278,7.48916 5.08538,7.45836 4.91598,7.45836 C4.73398,7.45836 4.57718,7.48916 4.47078,7.60956 C4.35878,7.69356 4.28318,7.84336 4.25238,8.02116 C4.25238,8.10376 4.23418,8.38096 4.23418,8.84296 L4.23418,9.68996 L5.64678,9.68996 Z M8.79398,10.79876 L3.30878,10.79876 L3.30878,8.46636 C3.30878,7.87836 3.35358,7.45836 3.46418,7.19376 C3.55798,6.93476 3.73158,6.71776 3.97658,6.54976 C4.22998,6.39996 4.50718,6.30896 4.84458,6.30896 C5.25058,6.30896 5.60198,6.42796 5.85818,6.67996 C6.14098,6.92076 6.29638,7.27916 6.37618,7.75516 C6.50498,7.51296 6.66178,7.33096 6.83538,7.16856 C7.00338,7.00756 7.29738,6.79336 7.72858,6.53576 L8.79258,5.86376 L8.79258,7.19236 L7.60818,7.98476 C7.16858,8.28716 6.89278,8.46776 6.78498,8.56576 C6.66878,8.67636 6.61558,8.78836 6.56238,8.91716 C6.52738,9.02356 6.50498,9.21396 6.50498,9.46736 L6.50498,9.68996 L8.79258,9.68996 L8.79398,10.79876 Z" id="Fill-61"></path>
                <path d="M6.62426,2.35634 L4.58166,3.12074 L6.62426,3.85854 L6.62426,2.35634 Z M8.79146,0.32494 L8.79286,1.52334 L7.54546,2.00634 L7.54546,4.19874 L8.79286,4.64394 L8.79286,5.82694 L3.30906,3.69474 L3.30906,2.50614 L8.79146,0.32494 Z" id="Fill-63"></path>
                <path d="M12.16546,89.85228 L15.81526,89.85228 L15.81526,89.01228 C15.81526,88.71268 15.79846,88.47468 15.76626,88.34588 C15.71306,88.16948 15.63606,88.01968 15.52546,87.89368 C15.41486,87.76628 15.24546,87.68088 15.00046,87.59548 C14.75126,87.53528 14.42226,87.49048 13.99106,87.49048 C13.56686,87.49048 13.25046,87.53528 13.02366,87.59548 C12.79266,87.68228 12.61486,87.77328 12.48886,87.93428 C12.36986,88.05468 12.26766,88.23388 12.22706,88.42428 C12.18786,88.58388 12.16546,88.90588 12.16546,89.34688 L12.16546,89.85228 Z M11.26106,90.94428 L11.26106,88.92688 C11.26106,88.47468 11.28346,88.12048 11.35486,87.87828 C11.44866,87.55068 11.62226,87.27908 11.85746,87.04528 C12.10246,86.82828 12.39226,86.64488 12.74786,86.52028 C13.10486,86.41528 13.53606,86.34388 14.04426,86.34388 C14.49226,86.34388 14.88846,86.40828 15.21886,86.52028 C15.61506,86.65608 15.93426,86.86048 16.18906,87.09988 C16.37666,87.30288 16.51386,87.54928 16.62166,87.87828 C16.69166,88.12468 16.73786,88.45648 16.73786,88.86388 L16.73786,90.94428 L11.26106,90.94428 Z" id="Fill-65"></path>
                <polygon id="Fill-67" points="16.7359 85.39384 11.2619 85.39384 11.2605 81.34504 12.1635 81.34504 12.1649 84.31024 13.3969 84.31024 13.3969 81.54804 14.3279 81.54804 14.3279 84.31024 15.8147 84.31024 15.8147 81.25124 16.7359 81.25124"></polygon>
                <path d="M14.71388,74.65458 L15.05688,73.57378 C15.65748,73.75718 16.08448,74.02318 16.39668,74.39838 C16.69068,74.79738 16.82928,75.27058 16.82928,75.87118 C16.82928,76.58938 16.58008,77.19278 16.08448,77.65758 C15.58748,78.12518 14.90568,78.35618 14.03348,78.35618 C13.12488,78.35618 12.41228,78.12518 11.91388,77.65898 C11.40288,77.19418 11.15368,76.57118 11.15228,75.80258 C11.15228,75.12498 11.35388,74.57198 11.74028,74.16458 C11.98948,73.92378 12.31428,73.72078 12.76788,73.60458 L13.02268,74.69658 C12.74268,74.76658 12.51028,74.89958 12.35908,75.09978 C12.18128,75.31258 12.10148,75.54638 12.10148,75.85158 C12.10148,76.26598 12.23868,76.58938 12.54668,76.84278 C12.83088,77.08218 13.29848,77.21238 13.96628,77.21238 C14.66068,77.21238 15.14648,77.08918 15.44048,76.84138 C15.73728,76.59078 15.89408,76.27298 15.89408,75.87678 C15.89408,75.57998 15.79468,75.32098 15.60428,75.11098 C15.41248,74.90658 15.11848,74.74138 14.71388,74.65458" id="Fill-69"></path>
                <path d="M13.98798,71.7192 C14.60118,71.7192 15.08698,71.5736 15.39918,71.2838 C15.73238,70.9968 15.89198,70.6286 15.89198,70.182 C15.89198,69.7452 15.73238,69.391 15.40338,69.1068 C15.08698,68.8128 14.60118,68.6812 13.96418,68.6812 C13.34258,68.6812 12.86518,68.8128 12.56278,69.09 C12.26038,69.3658 12.09938,69.7312 12.09938,70.1834 C12.09938,70.6482 12.26178,71.0318 12.57678,71.2964 C12.88478,71.5736 13.36078,71.7192 13.98798,71.7192 M14.02718,72.8742 C13.46718,72.8742 12.98138,72.7622 12.61318,72.6096 C12.33598,72.4766 12.08818,72.317 11.86838,72.0944 C11.64158,71.8774 11.46798,71.631 11.37558,71.3902 C11.22298,71.0528 11.15298,70.6482 11.15298,70.2044 C11.15298,69.3924 11.40078,68.7554 11.91318,68.2528 C12.40738,67.767 13.10178,67.5332 13.99638,67.5332 C14.88678,67.5332 15.58538,67.767 16.07958,68.243 C16.57938,68.7246 16.82718,69.391 16.82718,70.182 C16.82718,70.9968 16.57938,71.6604 16.08518,72.1378 C15.58678,72.6096 14.88818,72.8742 14.02718,72.8742" id="Fill-71"></path>
                <polygon id="Fill-73" points="16.73324 66.63328 11.29424 66.63328 11.29424 65.53008 15.81204 65.52868 15.81204 62.78328 16.73324 62.78188"></polygon>
                <path d="M13.98658,61.08256 C14.59978,61.08256 15.08558,60.92296 15.39778,60.63316 C15.73098,60.35316 15.89058,59.99056 15.89058,59.55236 C15.89058,59.09176 15.73098,58.73196 15.40198,58.44636 C15.08558,58.18736 14.59978,58.02776 13.96278,58.0291509 C13.33978,58.0291509 12.86378,58.18736 12.56138,58.44776 C12.25898,58.71096 12.09798,59.07496 12.09798,59.55376 C12.09798,60.00456 12.26038,60.36576 12.57538,60.65696 C12.88338,60.92996 13.35938,61.08256 13.98658,61.08256 M14.02578,62.21376 C13.46578,62.21376 12.97998,62.13956 12.61178,61.96036 C12.33458,61.83296 12.08678,61.65656 11.86698,61.45356 C11.64018,61.22956 11.46658,60.99996 11.37418,60.74516 C11.22158,60.39516 11.15158,60.00456 11.15158,59.55376 C11.15158,58.75716 11.39938,58.10896 11.91178,57.61896 C12.40598,57.13036 13.10038,56.88536 13.99498,56.88536 C14.88538,56.88536 15.58398,57.13036 16.07818,57.60916 C16.57798,58.10896 16.82578,58.72636 16.82578,59.53696 C16.82578,60.35316 16.57798,60.99996 16.08378,61.48996 C15.58538,61.96176 14.88678,62.21376 14.02578,62.21376" id="Fill-75"></path>
                <polygon id="Fill-77" points="16.73184 56.0294 11.25784 56.0308 11.25644 54.3746 14.98184 53.3904 11.25644 52.402 11.25644 50.7458 16.73184 50.7444 16.73184 51.765 12.40864 51.7776 16.73184 52.8514 16.73184 53.9336 12.41004 55.0046 16.73184 55.006"></polygon>
                <path d="M14.34064,48.5359 L15.81064,48.5359 L15.80924,47.5111 C15.80924,47.0967 15.79104,46.8419 15.77284,46.7523 C15.74204,46.5815 15.66224,46.4401 15.56004,46.3281 C15.43544,46.2315 15.28424,46.1853 15.08404,46.1853 C14.92304,46.1853 14.78024,46.2273 14.66964,46.2987 C14.55764,46.3841 14.46944,46.5087 14.41624,46.6529 C14.36304,46.7999 14.34064,47.1345 14.34064,47.6287 L14.34064,48.5359 Z M12.15384,48.5373 L13.43344,48.5359 L13.43344,47.7953 C13.43344,47.3683 13.41944,47.0967 13.39704,46.9959 C13.39144,46.8013 13.32004,46.6529 13.18844,46.5507 C13.09884,46.4401 12.96584,46.3841 12.78664,46.3841 C12.60884,46.3841 12.47024,46.4401 12.36384,46.5255 C12.26164,46.6221 12.19024,46.7579 12.15944,46.9539 C12.15384,47.0589 12.15384,47.3683 12.15384,47.9003 L12.15384,48.5373 Z M11.25644,49.6391 L11.25644,47.4425 C11.25644,47.0099 11.26064,46.6893 11.29984,46.4779 C11.33624,46.2623 11.40624,46.0747 11.51824,45.9109 C11.63724,45.7485 11.79404,45.5959 11.98444,45.4825 C12.15804,45.3579 12.38624,45.3089 12.62564,45.3089 C12.88044,45.3089 13.10724,45.3901 13.33404,45.5189 C13.53564,45.6673 13.70364,45.8437 13.81984,46.0747 C13.91224,45.7485 14.07324,45.4825 14.30564,45.3089 C14.54504,45.1353 14.81244,45.0415 15.14144,45.0415 C15.39484,45.0415 15.63144,45.0933 15.85404,45.2179 C16.09904,45.3355 16.29084,45.4825 16.42804,45.6939 C16.57504,45.8913 16.66324,46.1461 16.70384,46.4401 C16.71224,46.6221 16.73044,47.0673 16.73044,47.7589 L16.73184,49.6377 L11.25644,49.6391 Z" id="Fill-79"></path>
                <polygon id="Fill-81" points="16.73044 44.13626 11.25504 44.13626 11.25504 43.03026 16.73044 43.02886"></polygon>
                <path d="M14.55806,39.07078 L12.51966,39.81838 L14.55806,40.56598 L14.55806,39.07078 Z M16.72946,37.02398 L16.72946,38.22518 L15.48766,38.70538 L15.48766,40.89498 L16.73086,41.35418 L16.73086,42.54418 L11.25546,40.39938 L11.25546,39.21638 L16.72946,37.02398 Z" id="Fill-83"></path>
                <polygon id="Fill-85" points="13.1197 198.57922 6.6965 200.85562 6.6965 199.45702 11.4593 197.83162 6.6965 196.27342 6.6965 194.88322 13.1197 197.17782"></polygon>
                <polygon id="Fill-87" points="13.1197 191.07466 6.6951 191.07606 6.6951 189.77966 13.1183 189.77826"></polygon>
                <path d="M10.75454,182.3794 L9.66394,182.3794 L9.66394,179.5976 L12.24134,179.5976 C12.48914,179.8524 12.74394,180.2598 12.93574,180.768 C13.11774,181.2846 13.23674,181.804 13.23814,182.3304 C13.23814,182.9996 13.08694,183.603 12.80694,184.1 C12.52694,184.5886 12.12934,184.9526 11.60014,185.206 C11.06674,185.4664 10.49554,185.5952 9.88234,185.5952 C9.23274,185.5952 8.62234,185.4566 8.09734,185.1626 C7.57514,184.8896 7.18034,184.4822 6.90874,183.939 C6.68614,183.5232 6.58674,183.0234 6.58674,182.4074 C6.58674,181.6066 6.74774,180.9906 7.08094,180.5398 C7.42394,180.0904 7.88174,179.802 8.47954,179.6704 L8.72034,180.95 C8.39414,181.0466 8.15894,181.2286 7.97274,181.4582 C7.78514,181.7312 7.69554,182.035 7.69554,182.4074 C7.69554,182.9604 7.87334,183.4294 8.23034,183.7486 C8.59574,184.0916 9.12494,184.2554 9.83334,184.2554 C10.59494,184.2554 11.16894,184.0902 11.55114,183.7458 C11.92914,183.4112 12.12934,182.959 12.12934,182.4158 C12.12934,182.1512 12.06354,181.8866 11.95574,181.5954 C11.85354,181.3392 11.72334,181.0928 11.57354,180.901 L10.75454,180.901 L10.75454,182.3794 Z" id="Fill-89"></path>
                <polygon id="Fill-91" points="13.11704 175.24276 6.69384 175.24416 6.69384 173.95756 13.11704 173.95616"></polygon>
                <polygon id="Fill-93" points="13.11564 169.49366 6.74564 169.49506 6.74564 168.21546 12.02504 168.21406 12.02504 164.96046 13.11564 164.96046"></polygon>
                <path d="M10.57674,157.46248 L8.18274,158.33468 L10.57674,159.23768 L10.57674,157.46248 Z M13.11354,155.06988 L13.11354,156.48528 L11.65754,157.04808 L11.65894,159.62128 L13.11354,160.13928 L13.11494,161.51408 L6.69174,159.02768 L6.69174,157.64308 L13.11354,155.06988 Z" id="Fill-95"></path>
                <path d="M7.78094,149.90052 L12.02154,149.89912 L12.02154,148.92892 C12.02154,148.57332 12.01034,148.31712 11.96414,148.14492 C11.91094,147.95172 11.83114,147.76272 11.70654,147.62412 C11.57774,147.50652 11.36354,147.37912 11.07794,147.28672 C10.79794,147.21112 10.39334,147.16632 9.90474,147.16632 C9.41334,147.16632 9.02694,147.21112 8.75954,147.28672 C8.49214,147.38052 8.27514,147.50652 8.12674,147.65772 C8.00214,147.81032 7.88174,148.01612 7.83834,148.25412 C7.79354,148.44172 7.78094,148.80712 7.78094,149.32512 L7.78094,149.90052 Z M6.69034,151.19972 L6.69034,148.84492 C6.69034,148.29612 6.72954,147.89152 6.80514,147.62552 C6.91294,147.23632 7.11174,146.91992 7.40574,146.65532 C7.69134,146.37112 8.03434,146.16672 8.43474,146.02812 C8.85754,145.88952 9.36434,145.80692 9.96634,145.80692 C10.48294,145.80692 10.94074,145.88952 11.33134,146.01832 C11.79894,146.18072 12.16994,146.40752 12.46814,146.70292 C12.69074,146.92132 12.86434,147.23492 12.97914,147.62412 C13.07294,147.90412 13.11354,148.28072 13.11354,148.76232 L13.11354,151.19972 L6.69034,151.19972 Z" id="Fill-97"></path>
                <path d="M9.89872,140.470969 C10.62392,140.470969 11.17132,140.30436 11.54512,139.95016 C11.93152,139.62536 12.12332,139.19136 12.12332,138.68736 C12.12332,138.15536 11.93152,137.72696 11.56192,137.41056 C11.16992,137.07876 10.62392,136.91076 9.87492,136.91076 C9.14132,136.91076 8.59672,137.07316 8.22432,137.39096 C7.87292,137.71436 7.68952,138.15256 7.68952,138.68736 C7.69092,139.21796 7.87292,139.63656 8.23412,139.97116 C8.60232,140.30436 9.15952,140.47236 9.89872,140.470969 M9.94632,141.79956 C9.27152,141.79956 8.72692,141.70296 8.28732,141.50416 C7.96532,141.34876 7.66712,141.16396 7.41932,140.91896 C7.15612,140.65856 6.96012,140.36736 6.83972,140.07896 C6.66612,139.67156 6.58212,139.21796 6.58212,138.68736 C6.58212,137.74656 6.88032,136.99756 7.46272,136.41656 C8.03252,135.85376 8.86552,135.58216 9.90152,135.58216 C10.93892,135.58216 11.74812,135.85236 12.34592,136.41656 C12.92832,136.98356 13.23212,137.72696 13.23212,138.68596 C13.23212,139.63516 12.92972,140.38976 12.35152,140.96096 C11.75372,141.50416 10.97672,141.79956 9.94632,141.79956" id="Fill-99"></path>
                <polygon id="Fill-101" points="3.08324 204.33644 0.14044 204.33644 0.13064 131.68764 3.07204 131.68764"></polygon>
                <polygon id="Fill-103" points="19.12178 204.33378 16.17898 204.33518 16.16918 131.68498 19.11058 131.68498"></polygon>
            </g>
        </g>
    </g>
</svg>